<?xml version="1.0" encoding="UTF-8" standalone="no"?>
<svg
   width="250"
   height="250"
   version="1.1"
   id="svg12"
   xmlns="http://www.w3.org/2000/svg"
   xmlns:svg="http://www.w3.org/2000/svg">
  <defs
     id="defs16" />
  <circle
     cx="124.99989"
     cy="124.99989"
     r="124.99989"
     data-name="Ellipse 8"
     style="display:inline;fill:#dd0031;stroke-width:2.45874"
     id="circle2" />
  <path
     d="m 131.80182,149.04092 -19.85818,-19.62364 0.23454,-0.23455 c 13.60363,-15.16727 23.29819,-32.601819 29.00545,-51.052731 h 22.90728 V 62.454544 H 109.36364 V 46.81818 H 93.727274 V 62.454544 H 39.000001 V 78.012725 H 126.32909 C 121.05182,93.101813 112.80363,107.40909 101.54545,119.91818 94.274546,111.82637 88.254547,103.03091 83.485455,93.727267 H 67.849091 c 5.707273,12.743643 13.525455,24.783643 23.298182,35.650913 l -39.755454,39.28636 11.062727,11.06273 39.090904,-39.09091 24.31455,24.31455 z m 44.01636,-39.67729 H 160.18182 L 125,203.18182 h 15.63636 l 8.79546,-23.45455 h 37.13636 l 8.79546,23.45455 H 211 Z M 155.29546,164.09091 168,130.19909 l 12.70455,33.89182 z"
     id="path835"
     style="display:inline;fill:#ffffff;stroke:none;stroke-width:3.90909" />
</svg>
